<svg width="778" height="302" viewBox="0 0 778 302" fill="none" xmlns="http://www.w3.org/2000/svg">
<g clip-path="url(#clip0_1_30)">
<path d="M331.809 268.294C333.244 273.719 335.561 275.817 339.655 275.817C343.9 275.817 346.126 273.27 346.126 268.294V175.913H372.714V268.294C372.714 281.316 371.023 286.958 364.414 293.562C359.651 298.321 350.866 302 339.773 302C330.811 302 322.235 299.037 316.766 293.563C311.971 288.763 309.337 283.834 305.221 268.293L288.906 206.706C287.469 201.281 285.154 199.184 281.059 199.184C276.814 199.184 274.588 201.73 274.588 206.706V299.088H248V206.706C248 193.685 249.692 188.042 256.301 181.438C261.062 176.681 269.848 173 280.942 173C289.904 173 298.48 175.964 303.949 181.437C308.743 186.237 311.377 191.166 315.493 206.707L331.809 268.294Z" fill="#DB362D"/>
<path d="M683.517 299.088L652.811 203.123C652.472 202.064 652.152 201.164 651.66 200.564C650.817 199.539 649.65 199 648.079 199C646.509 199 645.342 199.539 644.498 200.564C644.007 201.163 643.686 202.063 643.348 203.123L612.643 299.088H585.159L618.7 194.258C620.447 188.797 622.945 184.16 626.115 181.071C631.554 175.773 637.965 173 648.08 173C658.195 173 664.607 175.773 670.045 181.07C673.214 184.16 675.712 188.796 677.461 194.257L711 299.087H683.517V299.088Z" fill="#DB362D"/>
<path d="M547.625 299.088C565.044 299.088 573.541 295.391 580.253 288.722C587.681 281.346 591.234 273.274 591.234 261.224C591.234 250.575 587.332 240.713 581.391 234.811C573.623 227.094 563.975 224.662 548.243 224.662L526.208 224.661C517.788 224.661 514.432 223.645 511.778 221.039C509.955 219.251 509.1 216.593 509.1 213.459C509.1 210.22 509.881 207.02 512.109 204.835C514.087 202.895 516.783 202.005 521.963 202.005H585.648V175.913H526.827C509.408 175.913 500.912 179.611 494.199 186.278C486.772 193.655 483.218 201.726 483.218 213.776C483.218 224.426 487.12 234.288 493.061 240.189C500.83 247.906 510.477 250.339 526.209 250.339L548.245 250.341C556.665 250.341 560.021 251.356 562.675 253.962C564.498 255.751 565.353 258.408 565.353 261.542C565.353 264.781 564.572 267.981 562.345 270.166C560.366 272.106 557.67 272.996 552.49 272.996H486.808L461.617 194.258C459.87 188.797 457.371 184.16 454.202 181.071C448.762 175.773 442.352 173 432.236 173C422.121 173 415.71 175.773 410.273 181.07C407.102 184.16 404.605 188.796 402.858 194.257L369.317 299.087H396.8L427.506 203.122C427.845 202.063 428.165 201.163 428.657 200.564C429.501 199.538 430.669 198.999 432.238 198.999C433.808 198.999 434.975 199.538 435.82 200.564C436.312 201.162 436.631 202.062 436.969 203.122L467.675 299.087H547.625V299.088Z" fill="#DB362D"/>
</g>
<path d="M109.526 302C100.914 302 93.5105 300.446 87.3175 297.338C81.1244 294.23 76.3463 290.039 72.9832 284.763C69.6611 279.447 68 273.456 68 266.79C68 261.76 69.0253 257.303 71.076 253.418C73.1677 249.533 76.0387 245.934 79.6889 242.622C83.3801 239.31 87.6456 236.018 92.4852 232.746L114.817 217.595C118.098 215.468 120.58 213.219 122.261 210.847C123.984 208.476 124.845 205.695 124.845 202.505C124.845 199.806 123.697 197.25 121.4 194.837C119.144 192.425 116.027 191.218 112.049 191.218C109.383 191.218 107.025 191.852 104.974 193.12C102.964 194.347 101.385 195.962 100.237 197.966C99.1294 199.97 98.5757 202.096 98.5757 204.345C98.5757 207.085 99.3345 209.866 100.852 212.688C102.411 215.509 104.42 218.433 106.881 221.459C109.383 224.485 112.049 227.696 114.879 231.09L174 300.16H149.884L100.79 244.094C97.1403 239.841 93.6131 235.65 90.2089 231.519C86.8458 227.389 84.0774 223.095 81.9037 218.638C79.7709 214.139 78.7046 209.273 78.7046 204.039C78.7046 198.109 80.0785 192.813 82.8265 188.151C85.5744 183.448 89.4092 179.748 94.3308 177.049C99.2935 174.35 105.097 173 111.741 173C118.385 173 124.086 174.309 128.844 176.926C133.601 179.543 137.272 183.019 139.856 187.354C142.44 191.689 143.732 196.412 143.732 201.524C143.732 207.453 142.255 212.769 139.302 217.472C136.349 222.134 132.248 226.367 126.998 230.17L101.529 248.756C97.3453 251.782 94.3513 254.849 92.5467 257.957C90.7421 261.024 89.8398 263.641 89.8398 265.809C89.8398 269.121 90.6806 272.127 92.3622 274.826C94.0437 277.525 96.402 279.692 99.437 281.328C102.513 282.923 106.102 283.72 110.203 283.72C114.715 283.72 119.165 282.718 123.553 280.715C127.942 278.67 131.94 275.767 135.55 272.004C139.159 268.242 142.03 263.744 144.163 258.509C146.295 253.234 147.362 247.386 147.362 240.966H166.494C166.494 248.899 165.613 255.81 163.849 261.699C162.086 267.547 159.809 272.495 157.02 276.544C154.231 280.551 151.278 283.761 148.161 286.174C147.177 286.869 146.234 287.564 145.331 288.26C144.429 288.955 143.486 289.65 142.501 290.345C138.072 294.353 132.884 297.297 126.937 299.178C121.031 301.059 115.227 302 109.526 302Z" fill="#636363"/>
<path d="M199.17 98.33C199.17 107.613 195.261 112.01 187.444 112.01C179.627 112.01 175.718 107.613 175.718 98.33V2.56699H153.732V97.841C153.732 119.827 166.435 131.553 187.444 131.553C208.453 131.553 221.156 119.338 221.156 97.841V2.56699H199.17V98.33ZM51.62 62.663C62.369 58.2657 66.766 47.028 66.766 35.791C66.766 14.293 56.506 2.07899 33.054 2.07899H0.319V129.109H35.009C59.927 129.109 69.21 113.474 69.21 92.465C69.21 76.342 62.3698 67.547 51.621 62.661L51.62 62.663ZM22.305 20.156H30.611C40.3827 20.156 44.78 26.019 44.78 38.234C44.78 48.983 38.4284 54.357 30.122 54.357H21.816L22.305 20.156ZM31.0995 111.522H22.305V72.435H29.1452C42.3372 72.435 47.2232 78.7866 47.2232 91.978C47.2232 104.681 42.8259 111.521 31.1002 111.521L31.0995 111.522ZM262.69 73.412H291.027V54.357H262.69V21.622H299.333V2.56699H240.704V129.597H301.776V110.542H262.69V73.412ZM108.789 2.56699H87.2915V129.597H143.479V110.542H109.277V2.56199L108.789 2.56699ZM665.289 129.597H687.276V2.56699H665.289V129.597ZM613.011 0.606995C590.047 0.606995 579.298 15.265 579.298 33.342V98.813C579.298 116.891 590.048 131.548 613.011 131.548C613.011 131.548 625.225 131.059 634.508 123.731L646.235 131.548V98.324V65.589H611.057V82.689H626.692V98.324V98.8126C626.692 112.982 614.476 112.493 614.476 112.493H613.011C604.216 112.493 601.285 108.095 601.285 98.3236V33.8306C601.285 24.5475 604.216 19.6616 613.011 19.6616C621.805 19.6616 624.737 24.0589 624.737 33.8306V43.6023H646.723V33.3423C646.723 15.2643 635.974 0.606995 613.011 0.606995ZM395.1 0.606995C372.136 0.606995 361.876 15.265 361.876 33.342V98.813C361.876 116.891 372.626 131.548 395.589 131.548C418.552 131.548 429.301 116.89 429.301 98.813V33.342C428.812 15.264 418.063 0.606995 395.099 0.606995H395.1ZM406.827 98.324C406.827 107.607 403.895 112.493 395.1 112.493C386.306 112.493 383.375 108.096 383.375 98.324V33.831C383.375 24.5479 386.306 19.662 395.1 19.662C403.895 19.662 406.827 24.0593 406.827 33.831V98.324ZM757.626 2.56099V77.803L727.823 2.56099H708.279V129.591H727.823V54.349L757.626 129.591H777.169V2.56099H757.626ZM537.277 129.591H559.262V2.56099H537.277V129.591ZM515.291 39.691C515.291 12.33 503.076 2.06999 478.158 2.06999H447.376V129.1H469.362V77.31C473.271 77.31 477.668 77.31 480.599 76.8214L496.234 129.588H518.22L499.655 71.9354C507.472 68.5153 515.289 60.2094 515.289 39.6884L515.291 39.691ZM477.669 59.234H469.852V20.147H477.669C489.395 20.147 493.793 24.5443 493.793 39.69C493.793 54.836 489.395 59.234 477.669 59.234Z" fill="#0000FF"/>
<defs>
<clipPath id="clip0_1_30">
<rect width="463" height="129" fill="white" transform="translate(248 173)"/>
</clipPath>
</defs>
</svg>
